<svg xmlns="http://www.w3.org/2000/svg" version="1.1" xmlns:xlink="http://www.w3.org/1999/xlink" xmlns:svgjs="http://svgjs.dev/svgjs" viewBox="0 0 9.985436137850675 3.302085925585051"><g transform="matrix(1,0,0,1,3.1433148091723893,0.9653599627925258)"><g><path d=" M 0.28087199999999996 0.13789800000000002 L 0.09813599999999999 0.5676659999999999 Q 0.09221399999999999 0.5837399999999999 0.07994699999999999 0.5926229999999999 Q 0.06767999999999999 0.6015059999999999 0.05329799999999999 0.6015059999999999 Q 0.030455999999999993 0.6015059999999999 0.019457999999999996 0.5888159999999999 Q 0.008459999999999999 0.5761259999999999 0.008459999999999999 0.557514 Q 0.008459999999999999 0.5498999999999999 0.010997999999999997 0.5414399999999999 L 0.22165199999999996 0.03553200000000001 Q 0.22841999999999996 0.018611999999999962 0.24237899999999996 0.009306000000000036 Q 0.25633799999999995 0 0.27241199999999993 0.0016920000000000268 Q 0.28763999999999995 0.0016920000000000268 0.30075299999999994 0.010575000000000001 Q 0.3138659999999999 0.019457999999999975 0.31978799999999996 0.03553200000000001 L 0.5279039999999999 0.531288 Q 0.5321339999999999 0.5422859999999999 0.5321339999999999 0.551592 Q 0.5321339999999999 0.5744339999999999 0.5173289999999999 0.5879699999999999 Q 0.5025239999999999 0.6015059999999999 0.4847579999999999 0.6015059999999999 Q 0.46952999999999995 0.6015059999999999 0.4572629999999999 0.5922 Q 0.44499599999999995 0.5828939999999999 0.43822799999999995 0.5668199999999999 L 0.25633799999999995 0.142974 L 0.28087199999999996 0.13789800000000002 M 0.12436199999999997 0.4644539999999999 L 0.17089199999999996 0.36716399999999993 L 0.39931199999999994 0.36716399999999993 L 0.4153859999999999 0.4644539999999999 L 0.12436199999999997 0.4644539999999999 M 1.2065965449609373 0.005075999999999969 Q 1.2269005449609374 0.005075999999999969 1.2395905449609372 0.018611999999999962 Q 1.252280544960937 0.032148000000000065 1.252280544960937 0.052452000000000054 L 1.252280544960937 0.5456699999999999 Q 1.252280544960937 0.5676659999999999 1.2374755449609371 0.582471 Q 1.2226705449609372 0.5972759999999999 1.2006745449609373 0.5972759999999999 Q 1.1896765449609372 0.5972759999999999 1.1782555449609373 0.5934689999999999 Q 1.1668345449609374 0.5896619999999999 1.1609125449609372 0.5828939999999999 L 0.8284345449609374 0.16074 L 0.8504305449609373 0.147204 L 0.8504305449609373 0.5498999999999999 Q 0.8504305449609373 0.5702039999999999 0.8373175449609374 0.5837399999999999 Q 0.8242045449609373 0.5972759999999999 0.8030545449609373 0.5972759999999999 Q 0.7827505449609373 0.5972759999999999 0.7700605449609373 0.5837399999999999 Q 0.7573705449609374 0.5702039999999999 0.7573705449609374 0.5498999999999999 L 0.7573705449609374 0.05668200000000001 Q 0.7573705449609374 0.034685999999999995 0.7721755449609373 0.019881000000000038 Q 0.7869805449609374 0.005075999999999969 0.8089765449609373 0.005075999999999969 Q 0.8208205449609374 0.005075999999999969 0.8335105449609373 0.009728999999999988 Q 0.8462005449609373 0.014382000000000006 0.8521225449609373 0.023688000000000042 L 1.1744485449609372 0.43484399999999995 L 1.1600665449609373 0.44499599999999995 L 1.1600665449609373 0.052452000000000054 Q 1.1600665449609373 0.032148000000000065 1.1727565449609374 0.018611999999999962 Q 1.1854465449609373 0.005075999999999969 1.2065965449609373 0.005075999999999969 M 1.7330161123828123 0.5972759999999999 Q 1.7093281123828123 0.5972759999999999 1.6941001123828123 0.582471 Q 1.6788721123828123 0.5676659999999999 1.6788721123828123 0.5456699999999999 L 1.6788721123828123 0.05498999999999998 L 1.7888521123828123 0.05498999999999998 L 1.7888521123828123 0.5456699999999999 Q 1.7888521123828123 0.5676659999999999 1.7732011123828122 0.582471 Q 1.7575501123828123 0.5972759999999999 1.7330161123828123 0.5972759999999999 M 1.5460501123828123 0.10236600000000001 Q 1.5240541123828124 0.10236600000000001 1.5092491123828122 0.08882999999999996 Q 1.4944441123828123 0.07529399999999997 1.4944441123828123 0.053297999999999957 Q 1.4944441123828123 0.03130200000000005 1.5092491123828122 0.01818900000000001 Q 1.5240541123828124 0.005075999999999969 1.5460501123828123 0.005075999999999969 L 1.9216741123828123 0.005075999999999969 Q 1.9436701123828122 0.005075999999999969 1.9584751123828124 0.018611999999999962 Q 1.9732801123828123 0.032148000000000065 1.9732801123828123 0.05414399999999997 Q 1.9732801123828123 0.07613999999999999 1.9584751123828124 0.08925300000000003 Q 1.9436701123828122 0.10236600000000001 1.9216741123828123 0.10236600000000001 L 1.5460501123828123 0.10236600000000001 M 2.2763482442578122 0.5972759999999999 Q 2.2526602442578123 0.5972759999999999 2.2340482442578122 0.582471 Q 2.215436244257812 0.5676659999999999 2.215436244257812 0.5456699999999999 L 2.215436244257812 0.05668200000000001 Q 2.215436244257812 0.034685999999999995 2.230241244257812 0.019881000000000038 Q 2.245046244257812 0.005075999999999969 2.267042244257812 0.005075999999999969 L 2.510690244257812 0.005075999999999969 Q 2.554682244257812 0.005075999999999969 2.593175244257812 0.02834100000000006 Q 2.631668244257812 0.05160600000000004 2.655356244257812 0.09263699999999997 Q 2.679044244257812 0.133668 2.679044244257812 0.18696599999999997 Q 2.679044244257812 0.21911399999999998 2.665931244257812 0.24956999999999996 Q 2.652818244257812 0.280026 2.630399244257812 0.30455999999999994 Q 2.607980244257812 0.32909399999999994 2.580062244257812 0.34262999999999993 L 2.580908244257812 0.32317199999999996 Q 2.604596244257812 0.33586199999999994 2.620247244257812 0.353205 Q 2.6358982442578123 0.370548 2.6447812442578122 0.3904289999999999 Q 2.653664244257812 0.41030999999999995 2.655356244257812 0.433152 Q 2.658740244257812 0.454302 2.660009244257812 0.4703759999999999 Q 2.661278244257812 0.48644999999999994 2.665085244257812 0.49744799999999995 Q 2.668892244257812 0.508446 2.679890244257812 0.5143679999999999 Q 2.698502244257812 0.5253659999999999 2.703155244257812 0.5460929999999999 Q 2.707808244257812 0.5668199999999999 2.693426244257812 0.5828939999999999 Q 2.6841202442578123 0.5938919999999999 2.669738244257812 0.596853 Q 2.655356244257812 0.599814 2.640974244257812 0.596853 Q 2.6265922442578122 0.5938919999999999 2.617286244257812 0.5888159999999999 Q 2.602904244257812 0.5803559999999999 2.588522244257812 0.5638589999999999 Q 2.574140244257812 0.5473619999999999 2.565257244257812 0.5194439999999999 Q 2.556374244257812 0.4915259999999999 2.556374244257812 0.44753399999999993 Q 2.556374244257812 0.433152 2.5512982442578123 0.42088499999999995 Q 2.546222244257812 0.4086179999999999 2.536916244257812 0.39973499999999995 Q 2.5276102442578123 0.390852 2.513228244257812 0.38619899999999996 Q 2.498846244257812 0.38154599999999994 2.4793882442578123 0.38154599999999994 L 2.308496244257812 0.38154599999999994 L 2.321186244257812 0.36208799999999997 L 2.321186244257812 0.5456699999999999 Q 2.321186244257812 0.5676659999999999 2.309342244257812 0.582471 Q 2.2974982442578122 0.5972759999999999 2.2763482442578122 0.5972759999999999 M 2.309342244257812 0.29440799999999995 L 2.506460244257812 0.29440799999999995 Q 2.521688244257812 0.29440799999999995 2.5360702442578122 0.28044899999999995 Q 2.550452244257812 0.26648999999999995 2.559758244257812 0.24237899999999996 Q 2.569064244257812 0.21826799999999996 2.569064244257812 0.189504 Q 2.569064244257812 0.15227999999999997 2.549183244257812 0.12732300000000002 Q 2.529302244257812 0.10236600000000001 2.506460244257812 0.10236600000000001 L 2.311034244257812 0.10236600000000001 L 2.321186244257812 0.07529399999999997 L 2.321186244257812 0.314712 L 2.309342244257812 0.29440799999999995 M 3.167416118320312 0.13789800000000002 L 2.9846801183203118 0.5676659999999999 Q 2.978758118320312 0.5837399999999999 2.966491118320312 0.5926229999999999 Q 2.954224118320312 0.6015059999999999 2.939842118320312 0.6015059999999999 Q 2.917000118320312 0.6015059999999999 2.906002118320312 0.5888159999999999 Q 2.895004118320312 0.5761259999999999 2.895004118320312 0.557514 Q 2.895004118320312 0.5498999999999999 2.897542118320312 0.5414399999999999 L 3.108196118320312 0.03553200000000001 Q 3.114964118320312 0.018611999999999962 3.128923118320312 0.009306000000000036 Q 3.142882118320312 0 3.158956118320312 0.0016920000000000268 Q 3.174184118320312 0.0016920000000000268 3.187297118320312 0.010575000000000001 Q 3.200410118320312 0.019457999999999975 3.206332118320312 0.03553200000000001 L 3.414448118320312 0.531288 Q 3.4186781183203117 0.5422859999999999 3.4186781183203117 0.551592 Q 3.4186781183203117 0.5744339999999999 3.4038731183203117 0.5879699999999999 Q 3.3890681183203117 0.6015059999999999 3.371302118320312 0.6015059999999999 Q 3.3560741183203118 0.6015059999999999 3.3438071183203117 0.5922 Q 3.331540118320312 0.5828939999999999 3.324772118320312 0.5668199999999999 L 3.142882118320312 0.142974 L 3.167416118320312 0.13789800000000002 M 3.010906118320312 0.4644539999999999 L 3.057436118320312 0.36716399999999993 L 3.285856118320312 0.36716399999999993 L 3.301930118320312 0.4644539999999999 L 3.010906118320312 0.4644539999999999 M 4.05168666328125 0.5972759999999999 Q 4.02799866328125 0.5972759999999999 4.013616663281249 0.5778179999999999 L 3.8181906632812495 0.320634 L 3.8951766632812497 0.241956 L 4.097370663281249 0.509292 Q 4.109214663281249 0.5253659999999999 4.109214663281249 0.543978 Q 4.109214663281249 0.5676659999999999 4.091448663281249 0.582471 Q 4.073682663281249 0.5972759999999999 4.05168666328125 0.5972759999999999 M 4.061838663281249 0.0008460000000000134 Q 4.08214266328125 0.0008460000000000134 4.095255663281249 0.017342999999999997 Q 4.108368663281249 0.03383999999999998 4.108368663281249 0.05076000000000003 Q 4.108368663281249 0.06852599999999998 4.0931406632812495 0.083754 L 3.7386666632812497 0.42299999999999993 L 3.7344366632812496 0.30202199999999996 L 4.020384663281249 0.02030399999999999 Q 4.03984266328125 0.0008460000000000134 4.061838663281249 0.0008460000000000134 M 3.6963666632812497 0.5972759999999999 Q 3.6726786632812494 0.5972759999999999 3.6582966632812495 0.582471 Q 3.6439146632812496 0.5676659999999999 3.6439146632812496 0.5456699999999999 L 3.6439146632812496 0.05668200000000001 Q 3.6439146632812496 0.034685999999999995 3.6591426632812496 0.019881000000000038 Q 3.6743706632812496 0.005075999999999969 3.6980586632812495 0.005075999999999969 Q 3.7217466632812495 0.005075999999999969 3.7357056632812498 0.019881000000000038 Q 3.7496646632812496 0.034685999999999995 3.7496646632812496 0.05668200000000001 L 3.7496646632812496 0.5456699999999999 Q 3.7496646632812496 0.5676659999999999 3.7352826632812497 0.582471 Q 3.7209006632812494 0.5972759999999999 3.6963666632812497 0.5972759999999999 M 0.11505599999999998 0.7791659999999997 L 0.39846599999999993 0.7791659999999997 Q 0.42046199999999995 0.7791659999999997 0.4352669999999999 0.7931249999999997 Q 0.4500719999999999 0.8070839999999997 0.4500719999999999 0.8290799999999997 Q 0.4500719999999999 0.8502299999999997 0.4352669999999999 0.8633429999999997 Q 0.42046199999999995 0.8764559999999997 0.39846599999999993 0.8764559999999997 L 0.16158599999999998 0.8764559999999997 L 0.16919999999999996 0.8620739999999997 L 0.16919999999999996 1.0270439999999996 L 0.16243199999999997 1.0202759999999997 L 0.36039599999999994 1.0202759999999997 Q 0.38239199999999995 1.0202759999999997 0.3971969999999999 1.0342349999999998 Q 0.4120019999999999 1.0481939999999996 0.4120019999999999 1.0701899999999998 Q 0.4120019999999999 1.0913399999999998 0.3971969999999999 1.1044529999999997 Q 0.38239199999999995 1.1175659999999996 0.36039599999999994 1.1175659999999996 L 0.16496999999999998 1.1175659999999996 L 0.16919999999999996 1.1107979999999997 L 0.16919999999999996 1.2816899999999998 L 0.16243199999999997 1.2740759999999995 L 0.39846599999999993 1.2740759999999995 Q 0.42046199999999995 1.2740759999999995 0.4352669999999999 1.2888809999999997 Q 0.4500719999999999 1.3036859999999997 0.4500719999999999 1.3231439999999997 Q 0.4500719999999999 1.3442939999999997 0.4352669999999999 1.3578299999999996 Q 0.42046199999999995 1.3713659999999996 0.39846599999999993 1.3713659999999996 L 0.11505599999999998 1.3713659999999996 Q 0.09305999999999999 1.3713659999999996 0.07825499999999999 1.3565609999999997 Q 0.06344999999999999 1.3417559999999997 0.06344999999999999 1.3197599999999996 L 0.06344999999999999 0.8307719999999997 Q 0.06344999999999999 0.8087759999999997 0.07825499999999999 0.7939709999999998 Q 0.09305999999999999 0.7791659999999997 0.11505599999999998 0.7791659999999997 M 1.1059601357812499 0.7783199999999998 Q 1.1254181357812498 0.7783199999999998 1.1393771357812499 0.7935479999999997 Q 1.1533361357812497 0.8087759999999997 1.1533361357812497 0.8256959999999998 Q 1.1533361357812497 0.8417699999999997 1.1423381357812499 0.8561519999999997 L 0.9722921357812497 1.0803419999999997 L 0.9147641357812498 1.0016639999999997 L 1.0645061357812498 0.8028539999999997 Q 1.08227213578125 0.7783199999999998 1.1059601357812499 0.7783199999999998 M 0.7286441357812499 0.7766279999999998 Q 0.7531781357812498 0.7766279999999998 0.7700981357812499 0.7986239999999998 L 1.1423381357812499 1.2935339999999997 Q 1.1524901357812498 1.3070699999999997 1.1524901357812498 1.3248359999999997 Q 1.1524901357812498 1.3485239999999996 1.1355701357812498 1.3620599999999996 Q 1.1186501357812497 1.3755959999999996 1.1017301357812497 1.3755959999999996 Q 1.0771961357812498 1.3755959999999996 1.0602761357812498 1.3535999999999997 L 0.6880361357812499 0.8586899999999997 Q 0.6770381357812498 0.8451539999999997 0.6770381357812498 0.8282339999999997 Q 0.6770381357812498 0.8062379999999998 0.6935351357812498 0.7914329999999997 Q 0.7100321357812498 0.7766279999999998 0.7286441357812499 0.7766279999999998 M 0.7210301357812499 1.3755959999999996 Q 0.7024181357812499 1.3755959999999996 0.6888821357812499 1.3616369999999995 Q 0.6753461357812498 1.3476779999999997 0.6753461357812498 1.3307579999999997 Q 0.6753461357812498 1.3121459999999996 0.6880361357812499 1.2960719999999997 L 0.8597741357812498 1.0634219999999996 L 0.9156101357812498 1.1454839999999997 L 0.7633301357812499 1.3519079999999997 Q 0.7464101357812498 1.3755959999999996 0.7210301357812499 1.3755959999999996 M 1.6527208809374998 0.7791659999999997 Q 1.6967128809374996 0.7791659999999997 1.7352058809374997 0.8045459999999998 Q 1.7736988809374998 0.8299259999999997 1.7973868809374998 0.8730719999999997 Q 1.8210748809374997 0.9162179999999998 1.8210748809374997 0.9695159999999997 Q 1.8210748809374997 1.0219679999999998 1.7973868809374998 1.0651139999999997 Q 1.7736988809374998 1.1082599999999996 1.7352058809374997 1.1340629999999996 Q 1.6967128809374996 1.1598659999999996 1.6527208809374998 1.1598659999999996 L 1.4970568809374998 1.1598659999999996 L 1.5055168809374997 1.1446379999999996 L 1.5055168809374997 1.3197599999999996 Q 1.5055168809374997 1.3417559999999997 1.4919808809374997 1.3565609999999997 Q 1.4784448809374997 1.3713659999999996 1.4564488809374998 1.3713659999999996 Q 1.4352988809374998 1.3713659999999996 1.4217628809374998 1.3565609999999997 Q 1.4082268809374998 1.3417559999999997 1.4082268809374998 1.3197599999999996 L 1.4082268809374998 0.8307719999999997 Q 1.4082268809374998 0.8087759999999997 1.4230318809374998 0.7939709999999998 Q 1.4378368809374997 0.7791659999999997 1.4598328809374999 0.7791659999999997 L 1.6527208809374998 0.7791659999999997 M 1.6527208809374998 1.0634219999999996 Q 1.6687948809374997 1.0634219999999996 1.6840228809374997 1.0498859999999997 Q 1.6992508809374998 1.0363499999999997 1.7094028809374997 1.0147769999999996 Q 1.7195548809374999 0.9932039999999998 1.7195548809374999 0.9695159999999997 Q 1.7195548809374999 0.9449819999999998 1.7094028809374997 0.9238319999999998 Q 1.6992508809374998 0.9026819999999998 1.6840228809374997 0.8895689999999997 Q 1.6687948809374997 0.8764559999999997 1.6527208809374998 0.8764559999999997 L 1.4953648809374998 0.8764559999999997 L 1.5055168809374997 0.8612279999999998 L 1.5055168809374997 1.0769579999999996 L 1.4962108809374999 1.0634219999999996 L 1.6527208809374998 1.0634219999999996 M 2.6165579737499995 1.0752659999999996 Q 2.6165579737499995 1.1387159999999996 2.5954079737499995 1.1937059999999997 Q 2.5742579737499995 1.2486959999999996 2.5357649737499997 1.2905729999999997 Q 2.4972719737499998 1.3324499999999997 2.4443969737499995 1.3561379999999996 Q 2.3915219737499998 1.3798259999999996 2.32891797375 1.3798259999999996 Q 2.26631397375 1.3798259999999996 2.21386197375 1.3561379999999996 Q 2.1614099737499997 1.3324499999999997 2.1229169737499998 1.2905729999999997 Q 2.08442397375 1.2486959999999996 2.06327397375 1.1937059999999997 Q 2.04212397375 1.1387159999999996 2.04212397375 1.0752659999999996 Q 2.04212397375 1.0118159999999996 2.06327397375 0.9568259999999997 Q 2.08442397375 0.9018359999999996 2.1229169737499998 0.8599589999999997 Q 2.1614099737499997 0.8180819999999998 2.21386197375 0.7943939999999997 Q 2.26631397375 0.7707059999999998 2.32891797375 0.7707059999999998 Q 2.3915219737499998 0.7707059999999998 2.4443969737499995 0.7943939999999997 Q 2.4972719737499998 0.8180819999999998 2.5357649737499997 0.8599589999999997 Q 2.5742579737499995 0.9018359999999996 2.5954079737499995 0.9568259999999997 Q 2.6165579737499995 1.0118159999999996 2.6165579737499995 1.0752659999999996 M 2.50657797375 1.0752659999999996 Q 2.50657797375 1.0185839999999997 2.4837359737499995 0.9724769999999997 Q 2.4608939737499997 0.9263699999999997 2.4211319737499997 0.8992979999999997 Q 2.3813699737499996 0.8722259999999997 2.32891797375 0.8722259999999997 Q 2.2764659737499997 0.8722259999999997 2.2367039737499996 0.8992979999999997 Q 2.1969419737499996 0.9263699999999997 2.17452297375 0.9720539999999998 Q 2.1521039737499996 1.0177379999999996 2.1521039737499996 1.0752659999999996 Q 2.1521039737499996 1.1319479999999997 2.17452297375 1.1780549999999996 Q 2.1969419737499996 1.2241619999999998 2.2367039737499996 1.2512339999999997 Q 2.2764659737499997 1.2783059999999997 2.32891797375 1.2783059999999997 Q 2.3813699737499996 1.2783059999999997 2.4211319737499997 1.2512339999999997 Q 2.4608939737499997 1.2241619999999998 2.4837359737499995 1.1780549999999996 Q 2.50657797375 1.1319479999999997 2.50657797375 1.0752659999999996 M 2.9280823878515623 1.3713659999999996 Q 2.9043943878515623 1.3713659999999996 2.8857823878515623 1.3565609999999997 Q 2.867170387851562 1.3417559999999997 2.867170387851562 1.3197599999999996 L 2.867170387851562 0.8307719999999997 Q 2.867170387851562 0.8087759999999997 2.881975387851562 0.7939709999999998 Q 2.896780387851562 0.7791659999999997 2.9187763878515622 0.7791659999999997 L 3.162424387851562 0.7791659999999997 Q 3.2064163878515624 0.7791659999999997 3.2449093878515622 0.8024309999999998 Q 3.283402387851562 0.8256959999999998 3.307090387851562 0.8667269999999997 Q 3.330778387851562 0.9077579999999997 3.330778387851562 0.9610559999999997 Q 3.330778387851562 0.9932039999999998 3.3176653878515623 1.0236599999999996 Q 3.304552387851562 1.0541159999999996 3.282133387851562 1.0786499999999997 Q 3.259714387851562 1.1031839999999997 3.231796387851562 1.1167199999999997 L 3.232642387851562 1.0972619999999997 Q 3.256330387851562 1.1099519999999996 3.2719813878515622 1.1272949999999997 Q 3.287632387851562 1.1446379999999996 3.2965153878515623 1.1645189999999996 Q 3.3053983878515623 1.1843999999999997 3.307090387851562 1.2072419999999997 Q 3.310474387851562 1.2283919999999997 3.3117433878515623 1.2444659999999996 Q 3.313012387851562 1.2605399999999998 3.316819387851562 1.2715379999999996 Q 3.3206263878515623 1.2825359999999997 3.331624387851562 1.2884579999999997 Q 3.350236387851562 1.2994559999999997 3.354889387851562 1.3201829999999997 Q 3.3595423878515622 1.3409099999999996 3.3451603878515623 1.3569839999999997 Q 3.335854387851562 1.3679819999999996 3.321472387851562 1.3709429999999996 Q 3.307090387851562 1.3739039999999996 3.292708387851562 1.3709429999999996 Q 3.2783263878515623 1.3679819999999996 3.2690203878515622 1.3629059999999997 Q 3.2546383878515623 1.3544459999999996 3.240256387851562 1.3379489999999996 Q 3.225874387851562 1.3214519999999996 3.216991387851562 1.2935339999999997 Q 3.208108387851562 1.2656159999999996 3.208108387851562 1.2216239999999996 Q 3.208108387851562 1.2072419999999997 3.2030323878515623 1.1949749999999997 Q 3.197956387851562 1.1827079999999996 3.188650387851562 1.1738249999999997 Q 3.179344387851562 1.1649419999999997 3.164962387851562 1.1602889999999997 Q 3.150580387851562 1.1556359999999997 3.131122387851562 1.1556359999999997 L 2.960230387851562 1.1556359999999997 L 2.972920387851562 1.1361779999999997 L 2.972920387851562 1.3197599999999996 Q 2.972920387851562 1.3417559999999997 2.9610763878515622 1.3565609999999997 Q 2.9492323878515623 1.3713659999999996 2.9280823878515623 1.3713659999999996 M 2.9610763878515622 1.0684979999999997 L 3.1581943878515624 1.0684979999999997 Q 3.173422387851562 1.0684979999999997 3.1878043878515623 1.0545389999999997 Q 3.202186387851562 1.0405799999999996 3.211492387851562 1.0164689999999996 Q 3.2207983878515623 0.9923579999999996 3.2207983878515623 0.9635939999999997 Q 3.2207983878515623 0.9263699999999997 3.200917387851562 0.9014129999999998 Q 3.181036387851562 0.8764559999999997 3.1581943878515624 0.8764559999999997 L 2.962768387851562 0.8764559999999997 L 2.972920387851562 0.8493839999999997 L 2.972920387851562 1.0888019999999998 L 2.9610763878515622 1.0684979999999997 M 3.789527869335937 1.3713659999999996 Q 3.7658398693359367 1.3713659999999996 3.7506118693359367 1.3565609999999997 Q 3.7353838693359367 1.3417559999999997 3.7353838693359367 1.3197599999999996 L 3.7353838693359367 0.8290799999999997 L 3.845363869335937 0.8290799999999997 L 3.845363869335937 1.3197599999999996 Q 3.845363869335937 1.3417559999999997 3.829712869335937 1.3565609999999997 Q 3.8140618693359367 1.3713659999999996 3.789527869335937 1.3713659999999996 M 3.6025618693359367 0.8764559999999997 Q 3.580565869335937 0.8764559999999997 3.565760869335937 0.8629199999999997 Q 3.550955869335937 0.8493839999999997 3.550955869335937 0.8273879999999997 Q 3.550955869335937 0.8053919999999998 3.565760869335937 0.7922789999999997 Q 3.580565869335937 0.7791659999999997 3.6025618693359367 0.7791659999999997 L 3.978185869335937 0.7791659999999997 Q 4.000181869335937 0.7791659999999997 4.014986869335937 0.7927019999999997 Q 4.029791869335937 0.8062379999999998 4.029791869335937 0.8282339999999997 Q 4.029791869335937 0.8502299999999997 4.014986869335937 0.8633429999999997 Q 4.000181869335937 0.8764559999999997 3.978185869335937 0.8764559999999997 L 3.6025618693359367 0.8764559999999997 M 4.988754746367186 1.2723839999999997 Q 5.0107507463671865 1.2723839999999997 5.0255557463671865 1.2863429999999996 Q 5.0403607463671865 1.3003019999999996 5.0403607463671865 1.3222979999999998 Q 5.0403607463671865 1.3434479999999998 5.0255557463671865 1.3574069999999996 Q 5.0107507463671865 1.3713659999999996 4.988754746367186 1.3713659999999996 L 4.713804746367186 1.3713659999999996 Q 4.691808746367187 1.3713659999999996 4.677003746367187 1.3565609999999997 Q 4.662198746367186 1.3417559999999997 4.662198746367186 1.3197599999999996 L 4.662198746367186 0.8307719999999997 Q 4.662198746367186 0.8087759999999997 4.677426746367186 0.7939709999999998 Q 4.692654746367186 0.7791659999999997 4.716342746367186 0.7791659999999997 Q 4.736646746367186 0.7791659999999997 4.752297746367186 0.7939709999999998 Q 4.767948746367186 0.8087759999999997 4.767948746367186 0.8307719999999997 L 4.767948746367186 1.2867659999999996 L 4.749336746367186 1.2723839999999997 L 4.988754746367186 1.2723839999999997 M 5.617562620429686 1.2723839999999997 Q 5.639558620429686 1.2723839999999997 5.654363620429686 1.2863429999999996 Q 5.669168620429686 1.3003019999999996 5.669168620429686 1.3222979999999998 Q 5.669168620429686 1.3434479999999998 5.654363620429686 1.3574069999999996 Q 5.639558620429686 1.3713659999999996 5.617562620429686 1.3713659999999996 L 5.342612620429686 1.3713659999999996 Q 5.3206166204296865 1.3713659999999996 5.305811620429687 1.3565609999999997 Q 5.291006620429686 1.3417559999999997 5.291006620429686 1.3197599999999996 L 5.291006620429686 0.8307719999999997 Q 5.291006620429686 0.8087759999999997 5.306234620429686 0.7939709999999998 Q 5.321462620429686 0.7791659999999997 5.345150620429687 0.7791659999999997 Q 5.365454620429686 0.7791659999999997 5.381105620429686 0.7939709999999998 Q 5.396756620429686 0.8087759999999997 5.396756620429686 0.8307719999999997 L 5.396756620429686 1.2867659999999996 L 5.378144620429686 1.2723839999999997 L 5.617562620429686 1.2723839999999997 M 6.325886232773437 0.8079299999999997 Q 6.347882232773436 0.8189279999999998 6.3516892327734364 0.8426159999999997 Q 6.355496232773437 0.8663039999999997 6.339422232773437 0.8857619999999997 Q 6.328424232773436 0.9009899999999997 6.311081232773437 0.9026819999999998 Q 6.293738232773436 0.9043739999999998 6.275972232773436 0.8959139999999997 Q 6.255668232773436 0.8866079999999997 6.233249232773437 0.8815319999999998 Q 6.210830232773437 0.8764559999999997 6.1862962327734365 0.8764559999999997 Q 6.140612232773437 0.8764559999999997 6.1046572327734365 0.8908379999999998 Q 6.068702232773436 0.9052199999999997 6.043322232773437 0.9318689999999997 Q 6.017942232773437 0.9585179999999998 6.004829232773436 0.9948959999999998 Q 5.991716232773436 1.0312739999999998 5.991716232773436 1.0752659999999996 Q 5.991716232773436 1.1268719999999997 6.006521232773436 1.1649419999999997 Q 6.021326232773436 1.2030119999999997 6.047552232773437 1.2283919999999997 Q 6.073778232773437 1.2537719999999997 6.109310232773437 1.2660389999999997 Q 6.144842232773437 1.2783059999999997 6.1862962327734365 1.2783059999999997 Q 6.209138232773436 1.2783059999999997 6.231980232773436 1.2740759999999995 Q 6.254822232773437 1.2698459999999996 6.275972232773436 1.2588479999999997 Q 6.293738232773436 1.2503879999999996 6.311081232773437 1.2529259999999998 Q 6.328424232773436 1.2554639999999997 6.340268232773436 1.2706919999999997 Q 6.357188232773437 1.2918419999999997 6.352535232773437 1.3142609999999997 Q 6.347882232773436 1.3366799999999996 6.326732232773437 1.3468319999999996 Q 6.304736232773436 1.3578299999999996 6.281471232773437 1.3650209999999996 Q 6.2582062327734365 1.3722119999999995 6.2345182327734365 1.3760189999999997 Q 6.210830232773437 1.3798259999999996 6.1862962327734365 1.3798259999999996 Q 6.1253842327734365 1.3798259999999996 6.070817232773437 1.3603679999999996 Q 6.016250232773436 1.3409099999999996 5.973527232773437 1.3028399999999996 Q 5.930804232773436 1.2647699999999997 5.906270232773436 1.2076649999999995 Q 5.881736232773436 1.1505599999999996 5.881736232773436 1.0752659999999996 Q 5.881736232773436 1.0101239999999998 5.904155232773436 0.9551339999999997 Q 5.9265742327734365 0.9001439999999997 5.967605232773437 0.8599589999999997 Q 6.008636232773436 0.8197739999999998 6.064472232773436 0.7973549999999997 Q 6.120308232773437 0.7749359999999997 6.1862962327734365 0.7749359999999997 Q 6.223520232773437 0.7749359999999997 6.259052232773437 0.7833959999999998 Q 6.2945842327734365 0.7918559999999998 6.325886232773437 0.8079299999999997" fill="#ffffff" fill-rule="nonzero"></path></g><g></g><g clip-path="url(#SvgjsClipPath1032)"><path d=" M -2.6795436927597267 0.6856829999999998 C -2.6795436927597267 0.02997086534095294 -2.1479839810389105 -0.5015888463798635 -1.4922718463798637 -0.5015888463798637 C -0.8365597117208166 -0.5015888463798637 -0.30500000000000016 0.029970865340952522 -0.30499999999999994 0.6856829999999995 C -0.30499999999999994 1.3413951346590467 -0.8365597117208163 1.8729548463798633 -1.4922718463798632 1.8729548463798633 C -2.1479839810389105 1.8729548463798633 -2.6795436927597267 1.341395134659047 -2.6795436927597267 0.6856829999999999 Z M -2.6162658135722 0.6856829999999998 C -2.6162658135722 1.3064477269821404 -2.113036573362004 1.8096769671923365 -1.4922718463798632 1.8096769671923365 C -0.8715071193977229 1.8096769671923365 -0.36827787918752675 1.3064477269821404 -0.36827787918752675 0.6856829999999998 C -0.36827787918752675 0.06491827301785923 -0.8715071193977229 -0.43831096719233686 -1.4922718463798632 -0.43831096719233686 C -2.113036573362004 -0.43831096719233686 -2.6162658135722 0.06491827301785912 -2.6162658135722 0.6856829999999997 Z" fill="#ffffff" transform="matrix(1,0,0,1,0,0)" fill-rule="nonzero"></path><path d=" M -1.3767556212208727 1.0647328506911964 L -1.2584983330920076 1.0647328506911964 L -1.311753270792424 0.8940037857104507 L -1.6767062262099808 0.8940037857104507 L -1.729961163910397 1.0647328506911964 L -1.604655428144712 1.0647328506911964 L -1.604655428144712 1.2793189231899316 L -2.054972916052642 1.2793189231899316 L -2.054972916052642 1.0647328506911964 L -1.966475740168127 1.0647328506911964 L -1.643030309722953 0.09204707681006807 L -1.3289828094602054 0.09204707681006807 L -1.0125858266518515 1.0647328506911964 L -0.9264381333129432 1.0647328506911964 L -0.9264381333129432 1.2793189231899316 L -1.3767556212208727 1.2793189231899316 L -1.3767556212208727 1.0647328506911964 M -1.614836519175674 0.6935146084853551 L -1.3751892995238018 0.6935146084853551 L -1.4957960701982733 0.3074163101573388 L -1.614836519175674 0.6935146084853551" fill="#ffffff" transform="matrix(1,0,0,1,0,0)" fill-rule="nonzero"></path></g></g><defs><clipPath id="SvgjsClipPath1032"><path d=" M -2.679543692759727 -0.5015888463798637 h 2.374543692759727 v 2.374543692759727 h -2.374543692759727 Z"></path></clipPath></defs></svg>